<mxfile host="app.diagrams.net" agent="Mozilla/5.0 (Windows NT 10.0; Win64; x64) AppleWebKit/537.36 (KHTML, like Gecko) Chrome/134.0.0.0 Safari/537.36" version="26.1.1">
  <diagram name="Página-1" id="NQmczlOZHtJDEI7Fcmhh">
    <mxGraphModel dx="1235" dy="636" grid="1" gridSize="10" guides="1" tooltips="1" connect="1" arrows="1" fold="1" page="1" pageScale="1" pageWidth="827" pageHeight="1169" math="0" shadow="0">
      <root>
        <mxCell id="0" />
        <mxCell id="1" parent="0" />
        <mxCell id="V8hUtTH4Ydl_pZKpW47u-34" value="" style="endArrow=none;html=1;rounded=0;exitX=0.043;exitY=0.286;exitDx=0;exitDy=0;exitPerimeter=0;" edge="1" parent="1" source="V8hUtTH4Ydl_pZKpW47u-31" target="V8hUtTH4Ydl_pZKpW47u-6">
          <mxGeometry width="50" height="50" relative="1" as="geometry">
            <mxPoint x="270" y="780" as="sourcePoint" />
            <mxPoint x="130" y="460" as="targetPoint" />
          </mxGeometry>
        </mxCell>
        <mxCell id="V8hUtTH4Ydl_pZKpW47u-1" value="APLICACION" style="swimlane;whiteSpace=wrap;html=1;startSize=23;" vertex="1" parent="1">
          <mxGeometry x="237" y="10" width="863" height="1070" as="geometry">
            <mxRectangle x="280" y="50" width="110" height="30" as="alternateBounds" />
          </mxGeometry>
        </mxCell>
        <mxCell id="V8hUtTH4Ydl_pZKpW47u-2" value="CRUD Usuarios" style="ellipse;whiteSpace=wrap;html=1;" vertex="1" parent="V8hUtTH4Ydl_pZKpW47u-1">
          <mxGeometry x="104" y="50" width="140" height="70" as="geometry" />
        </mxCell>
        <mxCell id="V8hUtTH4Ydl_pZKpW47u-3" value="CRUD Rutas todos los usuarios" style="ellipse;whiteSpace=wrap;html=1;" vertex="1" parent="V8hUtTH4Ydl_pZKpW47u-1">
          <mxGeometry x="104" y="140" width="140" height="70" as="geometry" />
        </mxCell>
        <mxCell id="V8hUtTH4Ydl_pZKpW47u-4" value="CRUD Videos disponibles" style="ellipse;whiteSpace=wrap;html=1;" vertex="1" parent="V8hUtTH4Ydl_pZKpW47u-1">
          <mxGeometry x="94" y="230" width="160" height="70" as="geometry" />
        </mxCell>
        <mxCell id="V8hUtTH4Ydl_pZKpW47u-5" value="CRUD Artículos de la tienda" style="ellipse;whiteSpace=wrap;html=1;" vertex="1" parent="V8hUtTH4Ydl_pZKpW47u-1">
          <mxGeometry x="104" y="330" width="140" height="70" as="geometry" />
        </mxCell>
        <mxCell id="V8hUtTH4Ydl_pZKpW47u-20" value="Crear Nuevas rutas" style="ellipse;whiteSpace=wrap;html=1;" vertex="1" parent="V8hUtTH4Ydl_pZKpW47u-1">
          <mxGeometry x="94" y="430" width="140" height="70" as="geometry" />
        </mxCell>
        <mxCell id="V8hUtTH4Ydl_pZKpW47u-21" value="Predecir dureza de una ruta" style="ellipse;whiteSpace=wrap;html=1;" vertex="1" parent="V8hUtTH4Ydl_pZKpW47u-1">
          <mxGeometry x="104" y="540" width="140" height="70" as="geometry" />
        </mxCell>
        <mxCell id="V8hUtTH4Ydl_pZKpW47u-22" value="Descargar Videos disponibles" style="ellipse;whiteSpace=wrap;html=1;" vertex="1" parent="V8hUtTH4Ydl_pZKpW47u-1">
          <mxGeometry x="104" y="630" width="140" height="70" as="geometry" />
        </mxCell>
        <mxCell id="V8hUtTH4Ydl_pZKpW47u-31" value="Modificar perfil" style="ellipse;whiteSpace=wrap;html=1;" vertex="1" parent="V8hUtTH4Ydl_pZKpW47u-1">
          <mxGeometry x="104" y="730" width="140" height="70" as="geometry" />
        </mxCell>
        <mxCell id="V8hUtTH4Ydl_pZKpW47u-35" value="Prediccion de la red neuronal" style="ellipse;whiteSpace=wrap;html=1;" vertex="1" parent="V8hUtTH4Ydl_pZKpW47u-1">
          <mxGeometry x="350" y="480" width="140" height="70" as="geometry" />
        </mxCell>
        <mxCell id="V8hUtTH4Ydl_pZKpW47u-37" value="&amp;lt;&amp;lt;include&amp;gt;&amp;gt;" style="html=1;verticalAlign=bottom;labelBackgroundColor=none;endArrow=open;endFill=0;dashed=1;rounded=0;entryX=0.084;entryY=0.815;entryDx=0;entryDy=0;entryPerimeter=0;exitX=1;exitY=0.5;exitDx=0;exitDy=0;" edge="1" parent="V8hUtTH4Ydl_pZKpW47u-1" source="V8hUtTH4Ydl_pZKpW47u-21" target="V8hUtTH4Ydl_pZKpW47u-35">
          <mxGeometry x="-0.1478" y="7" width="160" relative="1" as="geometry">
            <mxPoint x="260" y="570" as="sourcePoint" />
            <mxPoint x="330" y="540" as="targetPoint" />
            <mxPoint as="offset" />
          </mxGeometry>
        </mxCell>
        <mxCell id="V8hUtTH4Ydl_pZKpW47u-36" value="&amp;lt;&amp;lt;include&amp;gt;&amp;gt;" style="html=1;verticalAlign=bottom;labelBackgroundColor=none;endArrow=open;endFill=0;dashed=1;rounded=0;entryX=0;entryY=0.5;entryDx=0;entryDy=0;exitX=1;exitY=0.5;exitDx=0;exitDy=0;" edge="1" parent="V8hUtTH4Ydl_pZKpW47u-1" source="V8hUtTH4Ydl_pZKpW47u-20" target="V8hUtTH4Ydl_pZKpW47u-35">
          <mxGeometry x="0.0286" y="9" width="160" relative="1" as="geometry">
            <mxPoint x="250" y="480" as="sourcePoint" />
            <mxPoint x="320" y="510" as="targetPoint" />
            <mxPoint as="offset" />
          </mxGeometry>
        </mxCell>
        <mxCell id="V8hUtTH4Ydl_pZKpW47u-49" value="Seleccionar Tematica" style="ellipse;whiteSpace=wrap;html=1;" vertex="1" parent="V8hUtTH4Ydl_pZKpW47u-1">
          <mxGeometry x="333" y="630" width="140" height="70" as="geometry" />
        </mxCell>
        <mxCell id="V8hUtTH4Ydl_pZKpW47u-53" value="&amp;lt;&amp;lt;include&amp;gt;&amp;gt;" style="html=1;verticalAlign=bottom;labelBackgroundColor=none;endArrow=open;endFill=0;dashed=1;rounded=0;exitX=1;exitY=0.5;exitDx=0;exitDy=0;entryX=0;entryY=0.5;entryDx=0;entryDy=0;" edge="1" parent="V8hUtTH4Ydl_pZKpW47u-1" source="V8hUtTH4Ydl_pZKpW47u-22" target="V8hUtTH4Ydl_pZKpW47u-49">
          <mxGeometry width="160" relative="1" as="geometry">
            <mxPoint x="263" y="660" as="sourcePoint" />
            <mxPoint x="333" y="670" as="targetPoint" />
          </mxGeometry>
        </mxCell>
        <mxCell id="V8hUtTH4Ydl_pZKpW47u-48" value="Obtener videos desde la api de Youtube" style="ellipse;whiteSpace=wrap;html=1;" vertex="1" parent="V8hUtTH4Ydl_pZKpW47u-1">
          <mxGeometry x="613" y="630" width="140" height="70" as="geometry" />
        </mxCell>
        <mxCell id="V8hUtTH4Ydl_pZKpW47u-51" value="&amp;lt;&amp;lt;include&amp;gt;&amp;gt;" style="html=1;verticalAlign=bottom;labelBackgroundColor=none;endArrow=open;endFill=0;dashed=1;rounded=0;entryX=0;entryY=0.5;entryDx=0;entryDy=0;exitX=1;exitY=0.5;exitDx=0;exitDy=0;" edge="1" parent="V8hUtTH4Ydl_pZKpW47u-1" source="V8hUtTH4Ydl_pZKpW47u-49" target="V8hUtTH4Ydl_pZKpW47u-48">
          <mxGeometry width="160" relative="1" as="geometry">
            <mxPoint x="313" y="540" as="sourcePoint" />
            <mxPoint x="473" y="540" as="targetPoint" />
          </mxGeometry>
        </mxCell>
        <mxCell id="V8hUtTH4Ydl_pZKpW47u-6" value="Administrador" style="shape=umlActor;verticalLabelPosition=bottom;verticalAlign=top;html=1;outlineConnect=0;" vertex="1" parent="1">
          <mxGeometry x="80" y="320" width="30" height="60" as="geometry" />
        </mxCell>
        <mxCell id="V8hUtTH4Ydl_pZKpW47u-15" value="" style="endArrow=none;html=1;rounded=0;entryX=0.016;entryY=0.684;entryDx=0;entryDy=0;entryPerimeter=0;" edge="1" parent="1" source="V8hUtTH4Ydl_pZKpW47u-6" target="V8hUtTH4Ydl_pZKpW47u-2">
          <mxGeometry width="50" height="50" relative="1" as="geometry">
            <mxPoint x="130" y="310" as="sourcePoint" />
            <mxPoint x="340" y="120" as="targetPoint" />
          </mxGeometry>
        </mxCell>
        <mxCell id="V8hUtTH4Ydl_pZKpW47u-16" value="" style="endArrow=none;html=1;rounded=0;entryX=0.029;entryY=0.622;entryDx=0;entryDy=0;entryPerimeter=0;" edge="1" parent="1" source="V8hUtTH4Ydl_pZKpW47u-6" target="V8hUtTH4Ydl_pZKpW47u-3">
          <mxGeometry width="50" height="50" relative="1" as="geometry">
            <mxPoint x="120" y="340" as="sourcePoint" />
            <mxPoint x="340" y="210" as="targetPoint" />
          </mxGeometry>
        </mxCell>
        <mxCell id="V8hUtTH4Ydl_pZKpW47u-18" value="" style="endArrow=none;html=1;rounded=0;entryX=0.016;entryY=0.677;entryDx=0;entryDy=0;entryPerimeter=0;" edge="1" parent="1" target="V8hUtTH4Ydl_pZKpW47u-5">
          <mxGeometry width="50" height="50" relative="1" as="geometry">
            <mxPoint x="110" y="360" as="sourcePoint" />
            <mxPoint x="330" y="390" as="targetPoint" />
          </mxGeometry>
        </mxCell>
        <mxCell id="V8hUtTH4Ydl_pZKpW47u-19" value="Usuario" style="shape=umlActor;verticalLabelPosition=bottom;verticalAlign=top;html=1;outlineConnect=0;" vertex="1" parent="1">
          <mxGeometry x="60" y="585" width="30" height="60" as="geometry" />
        </mxCell>
        <mxCell id="V8hUtTH4Ydl_pZKpW47u-28" value="" style="endArrow=none;html=1;rounded=0;entryX=0;entryY=0.5;entryDx=0;entryDy=0;" edge="1" parent="1" source="V8hUtTH4Ydl_pZKpW47u-6" target="V8hUtTH4Ydl_pZKpW47u-20">
          <mxGeometry width="50" height="50" relative="1" as="geometry">
            <mxPoint x="170" y="390" as="sourcePoint" />
            <mxPoint x="310" y="470" as="targetPoint" />
          </mxGeometry>
        </mxCell>
        <mxCell id="V8hUtTH4Ydl_pZKpW47u-30" value="" style="endArrow=none;html=1;rounded=0;entryX=0;entryY=0;entryDx=0;entryDy=0;" edge="1" parent="1" source="V8hUtTH4Ydl_pZKpW47u-6" target="V8hUtTH4Ydl_pZKpW47u-22">
          <mxGeometry width="50" height="50" relative="1" as="geometry">
            <mxPoint x="150" y="440" as="sourcePoint" />
            <mxPoint x="320" y="660" as="targetPoint" />
          </mxGeometry>
        </mxCell>
        <mxCell id="V8hUtTH4Ydl_pZKpW47u-23" value="" style="endArrow=none;html=1;rounded=0;entryX=0;entryY=0.5;entryDx=0;entryDy=0;" edge="1" parent="1" source="V8hUtTH4Ydl_pZKpW47u-19" target="V8hUtTH4Ydl_pZKpW47u-31">
          <mxGeometry width="50" height="50" relative="1" as="geometry">
            <mxPoint x="130" y="640" as="sourcePoint" />
            <mxPoint x="310" y="720" as="targetPoint" />
          </mxGeometry>
        </mxCell>
        <mxCell id="V8hUtTH4Ydl_pZKpW47u-42" value="" style="endArrow=none;html=1;rounded=0;entryX=0.035;entryY=0.761;entryDx=0;entryDy=0;entryPerimeter=0;" edge="1" parent="1" source="V8hUtTH4Ydl_pZKpW47u-6" target="V8hUtTH4Ydl_pZKpW47u-4">
          <mxGeometry width="50" height="50" relative="1" as="geometry">
            <mxPoint x="110" y="350" as="sourcePoint" />
            <mxPoint x="330" y="300" as="targetPoint" />
          </mxGeometry>
        </mxCell>
        <mxCell id="V8hUtTH4Ydl_pZKpW47u-29" value="" style="endArrow=none;html=1;rounded=0;entryX=0.009;entryY=0.313;entryDx=0;entryDy=0;entryPerimeter=0;" edge="1" parent="1" source="V8hUtTH4Ydl_pZKpW47u-6" target="V8hUtTH4Ydl_pZKpW47u-21">
          <mxGeometry width="50" height="50" relative="1" as="geometry">
            <mxPoint x="160" y="410" as="sourcePoint" />
            <mxPoint x="320" y="570" as="targetPoint" />
          </mxGeometry>
        </mxCell>
        <mxCell id="V8hUtTH4Ydl_pZKpW47u-43" value="" style="endArrow=none;html=1;rounded=0;entryX=0;entryY=0.5;entryDx=0;entryDy=0;" edge="1" parent="1" source="V8hUtTH4Ydl_pZKpW47u-19" target="V8hUtTH4Ydl_pZKpW47u-22">
          <mxGeometry width="50" height="50" relative="1" as="geometry">
            <mxPoint x="600" y="570" as="sourcePoint" />
            <mxPoint x="650" y="520" as="targetPoint" />
          </mxGeometry>
        </mxCell>
        <mxCell id="V8hUtTH4Ydl_pZKpW47u-44" value="" style="endArrow=none;html=1;rounded=0;entryX=0;entryY=0.5;entryDx=0;entryDy=0;" edge="1" parent="1" source="V8hUtTH4Ydl_pZKpW47u-19" target="V8hUtTH4Ydl_pZKpW47u-21">
          <mxGeometry width="50" height="50" relative="1" as="geometry">
            <mxPoint x="600" y="570" as="sourcePoint" />
            <mxPoint x="650" y="520" as="targetPoint" />
          </mxGeometry>
        </mxCell>
        <mxCell id="V8hUtTH4Ydl_pZKpW47u-45" value="" style="endArrow=none;html=1;rounded=0;entryX=0.036;entryY=0.746;entryDx=0;entryDy=0;entryPerimeter=0;" edge="1" parent="1" source="V8hUtTH4Ydl_pZKpW47u-19" target="V8hUtTH4Ydl_pZKpW47u-20">
          <mxGeometry width="50" height="50" relative="1" as="geometry">
            <mxPoint x="600" y="570" as="sourcePoint" />
            <mxPoint x="650" y="520" as="targetPoint" />
          </mxGeometry>
        </mxCell>
      </root>
    </mxGraphModel>
  </diagram>
</mxfile>
